<svg width="20" height="20" viewBox="0 0 14 14" fill="none" xmlns="http://www.w3.org/2000/svg">
<path d="M5.08458 14L4.80597 11.76C4.65506 11.7017 4.51285 11.6317 4.37935 11.55C4.24585 11.4683 4.11526 11.3808 3.98756 11.2875L1.91542 12.1625L0 8.8375L1.79353 7.4725C1.78192 7.39083 1.77612 7.31208 1.77612 7.23625V6.76375C1.77612 6.68792 1.78192 6.60917 1.79353 6.5275L0 5.1625L1.91542 1.8375L3.98756 2.7125C4.11526 2.61917 4.24876 2.53167 4.38806 2.45C4.52736 2.36833 4.66667 2.29833 4.80597 2.24L5.08458 0H8.91542L9.19403 2.24C9.34494 2.29833 9.48715 2.36833 9.62065 2.45C9.75415 2.53167 9.88474 2.61917 10.0124 2.7125L12.0846 1.8375L14 5.1625L12.2065 6.5275C12.2181 6.60917 12.2239 6.68792 12.2239 6.76375V7.23625C12.2239 7.31208 12.2123 7.39083 12.1891 7.4725L13.9826 8.8375L12.0672 12.1625L10.0124 11.2875C9.88474 11.3808 9.75124 11.4683 9.61194 11.55C9.47264 11.6317 9.33333 11.7017 9.19403 11.76L8.91542 14H5.08458ZM7.03483 9.45C7.70813 9.45 8.28275 9.21083 8.75871 8.7325C9.23466 8.25417 9.47264 7.67667 9.47264 7C9.47264 6.32333 9.23466 5.74583 8.75871 5.2675C8.28275 4.78917 7.70813 4.55 7.03483 4.55C6.34992 4.55 5.77239 4.78917 5.30224 5.2675C4.83209 5.74583 4.59701 6.32333 4.59701 7C4.59701 7.67667 4.83209 8.25417 5.30224 8.7325C5.77239 9.21083 6.34992 9.45 7.03483 9.45Z" fill="#B9B9B9"/>
</svg>
